<svg xmlns="http://www.w3.org/2000/svg" viewBox="0 0 900 420" width="100%" height="auto" role="img" aria-labelledby="sineCurveTitle sineCurveDesc">
  <title id="sineCurveTitle">Life is like a sine curve</title>
  <desc id="sineCurveDesc">A sine wave that dips to a low point early on, then trends upward over time, illustrating that after hitting a low, things get better.</desc>

  <style>
    .sc-bg { fill: #ffffff; }
    .sc-axis { stroke: #cbd5e1; stroke-width: 1.5; }
    .sc-curve { fill: none; stroke: #e8590c; stroke-width: 4; stroke-linecap: round; stroke-linejoin: round; }
    .sc-dot { fill: #e8590c; }
    .sc-dot-ring { fill: none; stroke: #e8590c; stroke-width: 2; opacity: 0.4; }
    .sc-label { font-family: -apple-system, BlinkMacSystemFont, "Segoe UI", Helvetica, Arial, sans-serif; fill: #495057; }
    .sc-label-strong { font-family: -apple-system, BlinkMacSystemFont, "Segoe UI", Helvetica, Arial, sans-serif; fill: #e8590c; font-weight: 600; }
    .sc-title { font-family: -apple-system, BlinkMacSystemFont, "Segoe UI", Helvetica, Arial, sans-serif; fill: #212529; font-weight: 600; }

    @media (prefers-color-scheme: dark) {
      .sc-bg { fill: #1a1b1e; }
      .sc-axis { stroke: #3a3d42; }
      .sc-curve { stroke: #ff922b; }
      .sc-dot { fill: #ff922b; }
      .sc-dot-ring { stroke: #ff922b; }
      .sc-label { fill: #ced4da; }
      .sc-label-strong { fill: #ff922b; }
      .sc-title { fill: #f1f3f5; }
    }
  </style>

  <rect class="sc-bg" x="0" y="0" width="900" height="420" rx="12" />

  <text class="sc-title" x="60" y="34" font-size="19">Life is like a sine curve</text>

  <line class="sc-axis" x1="60" y1="350" x2="840" y2="350" />
  <line class="sc-axis" x1="60" y1="60" x2="60" y2="350" />

  <path class="sc-curve" d="M 60.00,290.74 L 61.95,286.46 L 63.90,282.17 L 65.85,277.90 L 67.80,273.64 L 69.75,269.39 L 71.70,265.16 L 73.65,260.95 L 75.60,256.77 L 77.55,252.62 L 79.50,248.50 L 81.45,244.42 L 83.40,240.39 L 85.35,236.39 L 87.30,232.45 L 89.25,228.55 L 91.20,224.72 L 93.15,220.94 L 95.10,217.22 L 97.05,213.56 L 99.00,209.98 L 100.95,206.46 L 102.90,203.02 L 104.85,199.66 L 106.80,196.38 L 108.75,193.18 L 110.70,190.07 L 112.65,187.04 L 114.60,184.11 L 116.55,181.27 L 118.50,178.52 L 120.45,175.87 L 122.40,173.33 L 124.35,170.88 L 126.30,168.54 L 128.25,166.31 L 130.20,164.18 L 132.15,162.16 L 134.10,160.26 L 136.05,158.47 L 138.00,156.79 L 139.95,155.22 L 141.90,153.78 L 143.85,152.45 L 145.80,151.24 L 147.75,150.15 L 149.70,149.17 L 151.65,148.32 L 153.60,147.59 L 155.55,146.98 L 157.50,146.49 L 159.45,146.12 L 161.40,145.87 L 163.35,145.75 L 165.30,145.74 L 167.25,145.86 L 169.20,146.09 L 171.15,146.45 L 173.10,146.92 L 175.05,147.51 L 177.00,148.21 L 178.95,149.03 L 180.90,149.97 L 182.85,151.02 L 184.80,152.18 L 186.75,153.45 L 188.70,154.82 L 190.65,156.30 L 192.60,157.89 L 194.55,159.58 L 196.50,161.37 L 198.45,163.26 L 200.40,165.24 L 202.35,167.32 L 204.30,169.49 L 206.25,171.74 L 208.20,174.09 L 210.15,176.51 L 212.10,179.02 L 214.05,181.60 L 216.00,184.26 L 217.95,186.98 L 219.90,189.78 L 221.85,192.64 L 223.80,195.56 L 225.75,198.54 L 227.70,201.58 L 229.65,204.67 L 231.60,207.80 L 233.55,210.98 L 235.50,214.21 L 237.45,217.46 L 239.40,220.76 L 241.35,224.08 L 243.30,227.43 L 245.25,230.80 L 247.20,234.19 L 249.15,237.60 L 251.10,241.02 L 253.05,244.44 L 255.00,247.87 L 256.95,251.30 L 258.90,254.73 L 260.85,258.14 L 262.80,261.55 L 264.75,264.94 L 266.70,268.31 L 268.65,271.66 L 270.60,274.99 L 272.55,278.28 L 274.50,281.54 L 276.45,284.76 L 278.40,287.94 L 280.35,291.08 L 282.30,294.16 L 284.25,297.20 L 286.20,300.18 L 288.15,303.10 L 290.10,305.96 L 292.05,308.76 L 294.00,311.49 L 295.95,314.14 L 297.90,316.73 L 299.85,319.23 L 301.80,321.66 L 303.75,324.00 L 305.70,326.26 L 307.65,328.42 L 309.60,330.50 L 311.55,332.48 L 313.50,334.37 L 315.45,336.16 L 317.40,337.85 L 319.35,339.44 L 321.30,340.92 L 323.25,342.30 L 325.20,343.57 L 327.15,344.73 L 329.10,345.77 L 331.05,346.71 L 333.00,347.53 L 334.95,348.24 L 336.90,348.82 L 338.85,349.30 L 340.80,349.65 L 342.75,349.89 L 344.70,350.00 L 346.65,349.99 L 348.60,349.87 L 350.55,349.62 L 352.50,349.25 L 354.45,348.76 L 356.40,348.15 L 358.35,347.42 L 360.30,346.57 L 362.25,345.60 L 364.20,344.51 L 366.15,343.29 L 368.10,341.97 L 370.05,340.52 L 372.00,338.96 L 373.95,337.28 L 375.90,335.48 L 377.85,333.58 L 379.80,331.56 L 381.75,329.44 L 383.70,327.20 L 385.65,324.86 L 387.60,322.42 L 389.55,319.87 L 391.50,317.22 L 393.45,314.48 L 395.40,311.64 L 397.35,308.70 L 399.30,305.68 L 401.25,302.56 L 403.20,299.36 L 405.15,296.08 L 407.10,292.72 L 409.05,289.28 L 411.00,285.76 L 412.95,282.18 L 414.90,278.53 L 416.85,274.81 L 418.80,271.03 L 420.75,267.19 L 422.70,263.30 L 424.65,259.35 L 426.60,255.36 L 428.55,251.32 L 430.50,247.24 L 432.45,243.12 L 434.40,238.97 L 436.35,234.79 L 438.30,230.59 L 440.25,226.36 L 442.20,222.11 L 444.15,217.84 L 446.10,213.57 L 448.05,209.29 L 450.00,205.00 L 451.95,200.71 L 453.90,196.43 L 455.85,192.16 L 457.80,187.89 L 459.75,183.64 L 461.70,179.41 L 463.65,175.21 L 465.60,171.03 L 467.55,166.88 L 469.50,162.76 L 471.45,158.68 L 473.40,154.64 L 475.35,150.65 L 477.30,146.70 L 479.25,142.81 L 481.20,138.97 L 483.15,135.19 L 485.10,131.47 L 487.05,127.82 L 489.00,124.24 L 490.95,120.72 L 492.90,117.28 L 494.85,113.92 L 496.80,110.64 L 498.75,107.44 L 500.70,104.32 L 502.65,101.30 L 504.60,98.36 L 506.55,95.52 L 508.50,92.78 L 510.45,90.13 L 512.40,87.58 L 514.35,85.14 L 516.30,82.80 L 518.25,80.56 L 520.20,78.44 L 522.15,76.42 L 524.10,74.52 L 526.05,72.72 L 528.00,71.04 L 529.95,69.48 L 531.90,68.03 L 533.85,66.71 L 535.80,65.49 L 537.75,64.40 L 539.70,63.43 L 541.65,62.58 L 543.60,61.85 L 545.55,61.24 L 547.50,60.75 L 549.45,60.38 L 551.40,60.13 L 553.35,60.01 L 555.30,60.00 L 557.25,60.11 L 559.20,60.35 L 561.15,60.70 L 563.10,61.18 L 565.05,61.76 L 567.00,62.47 L 568.95,63.29 L 570.90,64.23 L 572.85,65.27 L 574.80,66.43 L 576.75,67.70 L 578.70,69.08 L 580.65,70.56 L 582.60,72.15 L 584.55,73.84 L 586.50,75.63 L 588.45,77.52 L 590.40,79.50 L 592.35,81.58 L 594.30,83.74 L 596.25,86.00 L 598.20,88.34 L 600.15,90.77 L 602.10,93.27 L 604.05,95.86 L 606.00,98.51 L 607.95,101.24 L 609.90,104.04 L 611.85,106.90 L 613.80,109.82 L 615.75,112.80 L 617.70,115.84 L 619.65,118.92 L 621.60,122.06 L 623.55,125.24 L 625.50,128.46 L 627.45,131.72 L 629.40,135.01 L 631.35,138.34 L 633.30,141.69 L 635.25,145.06 L 637.20,148.45 L 639.15,151.86 L 641.10,155.27 L 643.05,158.70 L 645.00,162.13 L 646.95,165.56 L 648.90,168.98 L 650.85,172.40 L 652.80,175.81 L 654.75,179.20 L 656.70,182.57 L 658.65,185.92 L 660.60,189.24 L 662.55,192.54 L 664.50,195.79 L 666.45,199.02 L 668.40,202.20 L 670.35,205.33 L 672.30,208.42 L 674.25,211.46 L 676.20,214.44 L 678.15,217.36 L 680.10,220.22 L 682.05,223.02 L 684.00,225.74 L 685.95,228.40 L 687.90,230.98 L 689.85,233.49 L 691.80,235.91 L 693.75,238.26 L 695.70,240.51 L 697.65,242.68 L 699.60,244.76 L 701.55,246.74 L 703.50,248.63 L 705.45,250.42 L 707.40,252.11 L 709.35,253.70 L 711.30,255.18 L 713.25,256.55 L 715.20,257.82 L 717.15,258.98 L 719.10,260.03 L 721.05,260.97 L 723.00,261.79 L 724.95,262.49 L 726.90,263.08 L 728.85,263.55 L 730.80,263.91 L 732.75,264.14 L 734.70,264.26 L 736.65,264.25 L 738.60,264.13 L 740.55,263.88 L 742.50,263.51 L 744.45,263.02 L 746.40,262.41 L 748.35,261.68 L 750.30,260.83 L 752.25,259.85 L 754.20,258.76 L 756.15,257.55 L 758.10,256.22 L 760.05,254.78 L 762.00,253.21 L 763.95,251.53 L 765.90,249.74 L 767.85,247.84 L 769.80,245.82 L 771.75,243.69 L 773.70,241.46 L 775.65,239.12 L 777.60,236.67 L 779.55,234.13 L 781.50,231.48 L 783.45,228.73 L 785.40,225.89 L 787.35,222.96 L 789.30,219.93 L 791.25,216.82 L 793.20,213.62 L 795.15,210.34 L 797.10,206.98 L 799.05,203.54 L 801.00,200.02 L 802.95,196.44 L 804.90,192.78 L 806.85,189.06 L 808.80,185.28 L 810.75,181.45 L 812.70,177.55 L 814.65,173.61 L 816.60,169.61 L 818.55,165.58 L 820.50,161.50 L 822.45,157.38 L 824.40,153.23 L 826.35,149.05 L 828.30,144.84 L 830.25,140.61 L 832.20,136.36 L 834.15,132.10 L 836.10,127.83 L 838.05,123.54 L 840.00,119.26" />

  <circle class="sc-dot-ring" cx="317.40" cy="337.85" r="10" />
  <circle class="sc-dot" cx="317.40" cy="337.85" r="5" />
  <text class="sc-label" x="317.40" y="368" font-size="14" text-anchor="middle">you hit the lowest</text>

  <text class="sc-label-strong" x="840" y="42" font-size="14" text-anchor="end">it only gets better from here</text>

  <polygon class="sc-dot" points="838,113 840,119.26 832,121" />
</svg>
